:SAMPLES-PER-SECOND 30
:FULLY-SPECIFIED
:DEGREES
925
root  -62.2734 39.0907 5.47006 -84.6475 -85.9021 78.2477
RightUpLeg  -18.4151 -13.5961 -6.75019
RightLeg  20.3276 6.92538 2.6483
RightFoot  3.75099 -0.136263 1.22219
RightToes  3.49245e-010 0 -3.6325e-017
Spine  36.1119 -4.18368 8.35901
Spine1  9.47974 -0.260821 -5.34593
HEad  -41.7726 -7.6386 1.29533
LeftShoulder1  1.74446 -6.80083 -9.57538
LeftArm  -18.7834 -59.5231 -41.0325
LeftForeArm  -8.00266 -15.3645 -2.91323
LeftHand  -0.0751752 3.63446 3.91072
RightShoulder  0.767787 1.92479 6.49113
RightArm  -20.2723 69.3696 26.0245
RightForeArm  -19.6703 5.54421 2.30552
RightHand  0.0975115 6.19249 0.637111
LeftUpLeg  -11.0581 3.9597 2.08943
LeftLeg  24.5453 -3.44987 -1.38471
LeftFoot  -7.3188 0.155779 -3.18399
LeftToes  -2.21735e-009 9.83027e-011 -4.04511e-011
926
root  -62.7972 39.3468 5.41885 -98.1852 -85.7012 91.4735
RightUpLeg  -16.4295 -13.2988 -7.07207
RightLeg  18.7211 7.65676 2.81435
RightFoot  3.55488 -0.162523 1.43051
RightToes  3.49245e-010 0 -3.6325e-017
Spine  35.088 -3.95004 8.94194
Spine1  8.36357 -0.093765 -4.81872
HEad  -40.5053 -7.89535 0.74147
LeftShoulder1  1.86291 -6.78945 -10.881
LeftArm  -16.2621 -56.5763 -42.5114
LeftForeArm  -6.3062 -15.4571 -3.42411
LeftHand  -0.0465718 4.67632 3.96316
RightShoulder  0.810122 1.72688 8.02345
RightArm  -15.1588 69.275 29.9717
RightForeArm  -18.3772 6.21491 3.23131
RightHand  0.0975384 5.29872 0.745934
LeftUpLeg  -8.37901 4.30227 2.10071
LeftLeg  22.1535 -3.19708 -1.10867
LeftFoot  -7.50626 0.168089 -3.67209
LeftToes  -2.21735e-009 9.83027e-011 -4.04511e-011
927
root  -63.3615 39.596 5.45579 -110.551 -85.3603 104.043
RightUpLeg  -14.8943 -13.181 -7.46565
RightLeg  17.0697 8.75327 3.04197
RightFoot  3.14941 -0.289902 2.45076
RightToes  3.49245e-010 0 -3.6325e-017
Spine  33.1235 -4.29869 10.5323
Spine1  7.77696 0.169195 -6.09622
HEad  -39.2485 -8.44321 0.347077
LeftShoulder1  1.98104 -6.76327 -12.2032
LeftArm  -14.5215 -54.2705 -43.0256
LeftForeArm  -3.97038 -14.8814 -3.7128
LeftHand  -0.0432165 4.66268 3.39053
RightShoulder  0.829735 1.35757 9.78242
RightArm  -10.0814 69.5869 33.9893
RightForeArm  -17.1785 5.96895 4.1163
RightHand  0.127289 5.15895 1.09077
LeftUpLeg  -6.30497 3.91856 1.79048
LeftLeg  19.8419 -1.95363 -0.452435
LeftFoot  -7.44318 0.176399 -3.87877
LeftToes  -2.21735e-009 9.83027e-011 -4.04511e-011
928
root  -63.8776 39.784 5.47659 -107.935 -85.2847 101.697
RightUpLeg  -13.6552 -12.9176 -7.92965
RightLeg  15.9548 8.60946 2.88305
RightFoot  2.68103 -0.363472 3.09993
RightToes  3.49245e-010 0 -3.6325e-017
Spine  30.9924 -4.65988 11.5568
Spine1  7.1262 -0.296394 -5.75036
HEad  -37.9094 -8.85261 -0.233288
LeftShoulder1  2.11354 -6.82253 -13.5036
LeftArm  -13.1255 -51.5385 -43.4637
LeftForeArm  -2.77123 -14.9813 -4.05539
LeftHand  -0.0559489 4.21368 3.69312
RightShoulder  0.864233 1.20795 11.2148
RightArm  -5.13737 69.2279 36.9976
RightForeArm  -16.3776 6.44112 5.20033
RightHand  0.0933288 4.92631 0.742929
LeftUpLeg  -4.98052 3.22101 1.44818
LeftLeg  18.2527 -1.01508 -0.0471193
LeftFoot  -7.0535 0.173676 -3.49743
LeftToes  -2.21735e-009 9.83027e-011 -4.04511e-011
929
root  -64.3275 39.9484 5.58585 -103.924 -85.0598 97.3
RightUpLeg  -11.8879 -13.0642 -8.82416
RightLeg  15.0251 8.69327 2.84128
RightFoot  2.44229 -0.371073 3.20864
RightToes  3.49245e-010 0 -3.6325e-017
Spine  29.2996 -5.00463 12.2846
Spine1  6.78182 -0.902788 -4.90438
HEad  -36.7802 -9.42514 -0.544951
LeftShoulder1  2.22012 -6.65906 -15.0124
LeftArm  -10.8709 -49.0221 -44.3637
LeftForeArm  -2.70166 -15.6651 -4.58878
LeftHand  -0.0495578 4.73336 4.77059
RightShoulder  0.877502 0.995066 12.5229
RightArm  -0.682325 68.3676 39.5057
RightForeArm  -15.313 7.57641 6.15949
RightHand  -0.019462 4.55515 -0.514056
LeftUpLeg  -3.35735 2.59538 0.926232
LeftLeg  17.2307 -0.801742 0.0486597
LeftFoot  -6.39921 0.218311 -4.14892
LeftToes  -2.21735e-009 9.83027e-011 -4.04511e-011
930
root  -64.7206 40.0663 5.73019 -104.648 -84.6804 97.8327
RightUpLeg  -10.5584 -13.4852 -9.75668
RightLeg  14.2141 9.41415 3.00888
RightFoot  1.9653 -0.429401 3.79076
RightToes  3.49245e-010 0 -3.6325e-017
Spine  27.6369 -4.98013 12.8431
Spine1  6.57801 -1.14392 -4.09272
HEad  -36.1996 -10.0848 -1.14096
LeftShoulder1  2.2991 -6.57059 -16.0792
LeftArm  -8.84702 -47.2218 -45.5788
LeftForeArm  -2.09306 -15.7769 -4.93289
LeftHand  -0.0743299 4.14858 5.22512
RightShoulder  0.834351 0.52779 13.8584
RightArm  2.67889 67.2433 40.733
RightForeArm  -14.494 9.26752 6.91257
RightHand  0.00195023 4.75238 -0.273263
LeftUpLeg  -2.45108 2.79113 0.534087
LeftLeg  17.4366 -2.32926 -0.499077
LeftFoot  -6.35754 0.277 -5.57552
LeftToes  -2.21735e-009 9.83027e-011 -4.04511e-011
931
root  -65.0628 40.1156 5.9187 -105.718 -84.5192 98.5979
RightUpLeg  -9.43521 -14.2512 -10.6006
RightLeg  13.9603 10.4578 3.4297
RightFoot  1.26909 -0.460545 4.25406
RightToes  3.49245e-010 0 -3.6325e-017
Spine  26.0842 -5.09999 13.6842
Spine1  6.59781 -1.35456 -3.62975
HEad  -35.883 -10.8469 -1.27932
LeftShoulder1  2.37403 -6.54706 -16.9475
LeftArm  -7.48641 -45.8913 -46.4196
LeftForeArm  -2.2119 -15.5374 -5.21139
LeftHand  -0.0539905 4.41498 4.09781
RightShoulder  0.768869 0.0337561 14.9948
RightArm  5.52193 65.8728 41.8825
RightForeArm  -14.6295 10.7558 7.25269
RightHand  -1.27491e-005 4.91355 -0.300931
LeftUpLeg  -1.76215 2.62005 0.437167
LeftLeg  18.6764 -4.08718 -1.22067
LeftFoot  -7.47026 0.331412 -8.43499
LeftToes  -2.21735e-009 9.83027e-011 -4.04511e-011
932
root  -65.3585 40.1364 6.03709 -105.992 -84.4788 98.7836
RightUpLeg  -8.81 -14.1662 -11.0026
RightLeg  13.9514 10.5327 3.33676
RightFoot  0.324561 -0.546116 5.35273
RightToes  3.49245e-010 0 -3.6325e-017
Spine  24.8783 -4.98886 13.6104
Spine1  6.066 -1.72406 -2.3014
HEad  -35.1171 -11.0792 -1.66724
LeftShoulder1  2.44147 -6.5419 -17.6926
LeftArm  -6.33333 -44.3587 -46.9235
LeftForeArm  -2.45089 -15.2392 -5.5338
LeftHand  -0.0504596 4.71024 5.07055
RightShoulder  0.756573 -0.153932 15.9727
RightArm  7.14587 63.6453 43.2231
RightForeArm  -13.8709 12.5941 6.85663
RightHand  -0.00361555 4.59626 -0.335294
LeftUpLeg  -1.6372 3.10252 0.894982
LeftLeg  20.601 -5.54707 -1.97805
LeftFoot  -8.27915 0.31188 -9.79466
LeftToes  -2.21735e-009 9.83027e-011 -4.04511e-011
